<svg xmlns="http://www.w3.org/2000/svg" viewBox="0 0 416 160"><defs><style>.a{fill:#922;}</style></defs><title>logo</title><path class="a" d="M416,80v80H384V80a48,48,0,0,0-85-30.56,95.92,95.92,0,0,0-16-29.29A79.94,79.94,0,0,1,416,80Z" transform="translate(0 0)"/><path class="a" d="M208,0a79.66,79.66,0,0,0-53,20.15,95.92,95.92,0,0,1,16,29.29,48,48,0,1,1,5,66.3V153.3A79.8,79.8,0,0,0,256,144v16h32V80A80.09,80.09,0,0,0,208,0Z" transform="translate(0 0)"/><path class="a" d="M80,0a80,80,0,1,0,48,144v16h32V80A80.09,80.09,0,0,0,80,0Zm0,128a48,48,0,1,1,48-48A48.05,48.05,0,0,1,80,128Z" transform="translate(0 0)"/></svg>