<svg xmlns="http://www.w3.org/2000/svg" viewBox="0 0 512 204.8"><defs><style>.a{fill:#9a1c25;}.b{fill:#660e1d;}</style></defs><title>logo</title><path class="a" d="M256,0a102.4,102.4,0,1,0,51.2,191.1v13.7h51.2V102.4A102.4,102.4,0,0,0,256,0Zm0,153.6a51.2,51.2,0,1,1,51.2-51.2A51.2,51.2,0,0,1,256,153.6Z"/><path class="a" d="M102.4,0a102.4,102.4,0,1,0,51.2,191.1v13.7h51.2V102.4A102.4,102.4,0,0,0,102.4,0Zm0,153.6a51.2,51.2,0,1,1,51.2-51.2A51.2,51.2,0,0,1,102.4,153.6Z"/><path class="a" d="M409.6,0A102.4,102.4,0,0,0,307.2,102.4V204.8h51.2V102.4a51.2,51.2,0,0,1,102.4,0V204.8H512V102.4A102.4,102.4,0,0,0,409.6,0Z"/><path class="b" d="M307.2,102.4V204.8h51.2V102.4a102,102,0,0,0-25.6-67.72A102,102,0,0,0,307.2,102.4Z"/><path class="b" d="M204.8,102.4a102,102,0,0,0-25.6-67.72A102.41,102.41,0,0,0,204.8,191.1V102.4Z"/></svg>