<svg xmlns="http://www.w3.org/2000/svg" viewBox="0 0 464 160"><defs><style>.a{fill:#fff;}.b{fill:#9e005d;stroke:#fff;stroke-width:2px;}.b,.c{stroke-miterlimit:10;}.c,.d{fill:#333;}.c{stroke:#333;stroke-width:4px;}</style></defs><title>ADC_Logo_v2</title><rect class="a" width="464" height="160"/><path class="b" d="M1294.62,264c-3.3,10-12.19,16-22.62,16a24,24,0,0,1,0-48,24.47,24.47,0,0,1,22.62,16h16.57a40,40,0,1,0,0,16h-16.57Z" transform="translate(-1088 -176)"/><path class="b" d="M1232,256a24,24,0,1,0-24,24,24,24,0,0,0,24-24V192h16v64a40,40,0,1,1-16-32v32Z" transform="translate(-1088 -176)"/><path class="b" d="M1168,256a24,24,0,1,1-24-24,24,24,0,0,1,24,24v40h16V256a40,40,0,1,0-16,32V256Z" transform="translate(-1088 -176)"/><line class="c" x1="240" y1="16" x2="240" y2="144"/><path class="d" d="M1360,236.22q-0.41-1.21-.86-2.39t-0.86-2.42h-8.65q-0.41,1.24-.84,2.44l-0.84,2.38h-3.87q1.15-3.28,2.19-6.06t2-5.26q1-2.48,2-4.73t2-4.43h3.55q1,2.19,2,4.43t2,4.73q1,2.48,2,5.26t2.2,6.06h-4Zm-6-16.51q-0.68,1.57-1.55,3.81t-1.82,4.87h6.74q-0.95-2.63-1.83-4.9T1353.94,219.71Z" transform="translate(-1088 -176)"/><path class="d" d="M1381,236.22q-0.41-1.21-.86-2.39t-0.86-2.42h-8.65q-0.41,1.24-.84,2.44l-0.84,2.38h-3.87q1.15-3.28,2.19-6.06t2-5.26q1-2.48,2-4.73t2-4.43h3.55q1,2.19,2,4.43t2,4.73q1,2.48,2,5.26t2.2,6.06h-4Zm-6-16.51q-0.68,1.57-1.55,3.81t-1.82,4.87h6.74q-0.95-2.63-1.83-4.9T1375,219.71Z" transform="translate(-1088 -176)"/><path class="d" d="M1401.43,236.22q-1-1.68-2.24-3.62t-2.57-3.9q-1.33-2-2.7-3.81t-2.61-3.32v14.65h-3.66V215.75h3q1.18,1.24,2.54,2.94t2.73,3.53q1.37,1.83,2.66,3.68t2.29,3.44V215.75h3.69v20.47h-3.16Z" transform="translate(-1088 -176)"/><path class="d" d="M1363.74,255.52a11.87,11.87,0,0,1-.83,4.62,8.73,8.73,0,0,1-2.35,3.28,9.77,9.77,0,0,1-3.66,1.95,16.66,16.66,0,0,1-4.74.64q-1.24,0-2.81-.1a18.91,18.91,0,0,1-3-.43V245.59a17.81,17.81,0,0,1,3-.41q1.6-.09,2.84-0.09a17.12,17.12,0,0,1,4.7.61,9.68,9.68,0,0,1,3.65,1.89,8.47,8.47,0,0,1,2.35,3.25A12,12,0,0,1,1363.74,255.52Zm-13.65,7.18,0.86,0h1.45q3.75,0,5.6-1.91a8.73,8.73,0,0,0,0-10.68q-1.8-1.86-5.58-1.86a21.79,21.79,0,0,0-2.36.09v14.3Z" transform="translate(-1088 -176)"/><path class="d" d="M1366.78,258.12a9.7,9.7,0,0,1,.61-3.57A7.53,7.53,0,0,1,1369,252a6.68,6.68,0,0,1,2.31-1.54,7.15,7.15,0,0,1,2.66-.52,6.36,6.36,0,0,1,5,2q1.79,2,1.79,5.91c0,0.2,0,.42,0,0.66s0,0.47,0,.66h-10.19a4.07,4.07,0,0,0,1.32,2.88,5,5,0,0,0,3.38,1,11.05,11.05,0,0,0,2.38-.24,9.82,9.82,0,0,0,1.7-.5l0.47,2.92a5.75,5.75,0,0,1-.81.31,11.27,11.27,0,0,1-1.18.29q-0.67.13-1.43,0.22a13.76,13.76,0,0,1-1.57.09,9.49,9.49,0,0,1-3.54-.6,6.59,6.59,0,0,1-2.48-1.68,6.88,6.88,0,0,1-1.45-2.54A10.37,10.37,0,0,1,1366.78,258.12Zm10.37-1.6a4.73,4.73,0,0,0-.21-1.4,3.4,3.4,0,0,0-.61-1.15,2.88,2.88,0,0,0-1-.77,3.09,3.09,0,0,0-1.37-.28,3.2,3.2,0,0,0-1.45.31,3.3,3.3,0,0,0-1,.81,3.74,3.74,0,0,0-.67,1.15,6.37,6.37,0,0,0-.32,1.33h6.65Z" transform="translate(-1088 -176)"/><path class="d" d="M1388.49,265.77q-1.48-3-3-7a88.54,88.54,0,0,1-2.83-8.46h3.81q0.32,1.3.75,2.79t0.92,3q0.49,1.49,1,2.9t1,2.53q0.45-1.12.95-2.53t1-2.9q0.49-1.49.93-3t0.77-2.79h3.69a87.87,87.87,0,0,1-2.83,8.46q-1.56,3.94-3,7h-3.06Z" transform="translate(-1088 -176)"/><path class="d" d="M1398.83,258.12a9.7,9.7,0,0,1,.61-3.57A7.53,7.53,0,0,1,1401,252a6.68,6.68,0,0,1,2.31-1.54,7.15,7.15,0,0,1,2.66-.52,6.36,6.36,0,0,1,5,2q1.79,2,1.79,5.91c0,0.2,0,.42,0,0.66s0,0.47,0,.66h-10.19a4.07,4.07,0,0,0,1.32,2.88,5,5,0,0,0,3.38,1,11.05,11.05,0,0,0,2.38-.24,9.82,9.82,0,0,0,1.7-.5l0.47,2.92a5.75,5.75,0,0,1-.81.31,11.27,11.27,0,0,1-1.18.29q-0.67.13-1.43,0.22a13.76,13.76,0,0,1-1.57.09,9.49,9.49,0,0,1-3.54-.6,6.59,6.59,0,0,1-2.48-1.68,6.88,6.88,0,0,1-1.45-2.54A10.37,10.37,0,0,1,1398.83,258.12Zm10.37-1.6a4.73,4.73,0,0,0-.21-1.4,3.4,3.4,0,0,0-.61-1.15,2.88,2.88,0,0,0-1-.77,3.09,3.09,0,0,0-1.37-.28,3.2,3.2,0,0,0-1.45.31,3.3,3.3,0,0,0-1,.81,3.74,3.74,0,0,0-.67,1.15,6.37,6.37,0,0,0-.32,1.33h6.65Z" transform="translate(-1088 -176)"/><path class="d" d="M1421.93,266.06a9.73,9.73,0,0,1-2.64-.35,4.05,4.05,0,0,1-1.67-.93,3.31,3.31,0,0,1-.87-1.51,7.62,7.62,0,0,1-.25-2.05V243.43l3.57-.59v17.7a5,5,0,0,0,.1,1.09,1.75,1.75,0,0,0,.37.75,1.66,1.66,0,0,0,.72.47,5.59,5.59,0,0,0,1.17.25Z" transform="translate(-1088 -176)"/><path class="d" d="M1439.3,258a9.94,9.94,0,0,1-.53,3.34,7.38,7.38,0,0,1-1.5,2.57,6.79,6.79,0,0,1-2.35,1.66,7.6,7.6,0,0,1-3,.59,7.48,7.48,0,0,1-3-.59,6.8,6.8,0,0,1-2.33-1.66,7.6,7.6,0,0,1-1.52-2.57,9.7,9.7,0,0,1-.55-3.34,9.58,9.58,0,0,1,.55-3.32,7.51,7.51,0,0,1,1.54-2.56,6.8,6.8,0,0,1,2.35-1.64,7.57,7.57,0,0,1,3-.58,7.68,7.68,0,0,1,3,.58,6.62,6.62,0,0,1,2.35,1.64,7.6,7.6,0,0,1,1.52,2.56A9.58,9.58,0,0,1,1439.3,258Zm-3.66,0a6,6,0,0,0-1-3.65,3.51,3.51,0,0,0-5.52,0,6,6,0,0,0-1,3.65,6.16,6.16,0,0,0,1,3.69,3.49,3.49,0,0,0,5.52,0A6.16,6.16,0,0,0,1435.64,258Z" transform="translate(-1088 -176)"/><path class="d" d="M1456.91,258.06a10.93,10.93,0,0,1-.46,3.25,7.61,7.61,0,0,1-1.31,2.54,5.87,5.87,0,0,1-2.14,1.65,6.91,6.91,0,0,1-2.91.59,7.15,7.15,0,0,1-2-.27,7.51,7.51,0,0,1-1.51-.59v6H1443V250.82q1.09-.3,2.69-0.56a20.43,20.43,0,0,1,3.37-.27,9,9,0,0,1,3.28.56,6.84,6.84,0,0,1,2.47,1.61,7.06,7.06,0,0,1,1.57,2.54A9.67,9.67,0,0,1,1456.91,258.06Zm-3.66.06a5.76,5.76,0,0,0-1.08-3.72,4.22,4.22,0,0,0-3.47-1.33c-0.34,0-.69,0-1,0a5.77,5.77,0,0,0-1.08.19v8.83a5.51,5.51,0,0,0,1.25.61,4.91,4.91,0,0,0,1.67.28,3.2,3.2,0,0,0,2.85-1.33A6.28,6.28,0,0,0,1453.25,258.12Z" transform="translate(-1088 -176)"/><path class="d" d="M1469.41,257.64a7.53,7.53,0,0,0-.61-3.5,2.36,2.36,0,0,0-2.26-1.08,10.6,10.6,0,0,0-1.3.09l-1.06.15v12.47h-3.57V250.82a23.72,23.72,0,0,1,2.7-.56,22.33,22.33,0,0,1,3.53-.27,7,7,0,0,1,2.61.41,5.07,5.07,0,0,1,1.7,1.09,6.94,6.94,0,0,1,.83-0.5,8.6,8.6,0,0,1,1.12-.49,10.38,10.38,0,0,1,1.32-.37,6.79,6.79,0,0,1,1.4-.15,7.37,7.37,0,0,1,3,.52,4.36,4.36,0,0,1,1.83,1.45,5.58,5.58,0,0,1,.92,2.24,15.31,15.31,0,0,1,.25,2.88v8.68h-3.57v-8.12a7.69,7.69,0,0,0-.59-3.5,2.36,2.36,0,0,0-2.27-1.08,4.69,4.69,0,0,0-1.63.28,5.31,5.31,0,0,0-1.15.55,8.05,8.05,0,0,1,.32,1.57,16.41,16.41,0,0,1,.09,1.77v8.54h-3.57v-8.12Z" transform="translate(-1088 -176)"/><path class="d" d="M1485.3,258.12a9.7,9.7,0,0,1,.61-3.57,7.53,7.53,0,0,1,1.61-2.56,6.68,6.68,0,0,1,2.31-1.54,7.15,7.15,0,0,1,2.66-.52,6.36,6.36,0,0,1,5,2q1.79,2,1.79,5.91c0,0.2,0,.42,0,0.66s0,0.47,0,.66H1489a4.07,4.07,0,0,0,1.32,2.88,5,5,0,0,0,3.38,1,11.05,11.05,0,0,0,2.38-.24,9.82,9.82,0,0,0,1.7-.5l0.47,2.92a5.75,5.75,0,0,1-.81.31,11.27,11.27,0,0,1-1.18.29q-0.67.13-1.43,0.22a13.76,13.76,0,0,1-1.57.09,9.49,9.49,0,0,1-3.54-.6,6.59,6.59,0,0,1-2.48-1.68,6.88,6.88,0,0,1-1.45-2.54A10.37,10.37,0,0,1,1485.3,258.12Zm10.37-1.6a4.73,4.73,0,0,0-.21-1.4,3.4,3.4,0,0,0-.61-1.15,2.88,2.88,0,0,0-1-.77,3.09,3.09,0,0,0-1.37-.28,3.2,3.2,0,0,0-1.45.31,3.3,3.3,0,0,0-1,.81,3.74,3.74,0,0,0-.67,1.15,6.37,6.37,0,0,0-.32,1.33h6.65Z" transform="translate(-1088 -176)"/><path class="d" d="M1503,250.82a23.89,23.89,0,0,1,2.69-.56,23.11,23.11,0,0,1,3.66-.27,8.44,8.44,0,0,1,3.16.52,5,5,0,0,1,2,1.45,5.53,5.53,0,0,1,1.06,2.24,12.55,12.55,0,0,1,.31,2.88v8.68h-3.57v-8.12a11.77,11.77,0,0,0-.16-2.11,3.76,3.76,0,0,0-.53-1.42,2.12,2.12,0,0,0-1-.8,4.25,4.25,0,0,0-1.55-.25,11.92,11.92,0,0,0-1.42.09l-1.09.15v12.47H1503V250.82Z" transform="translate(-1088 -176)"/><path class="d" d="M1520.13,246.24l3.57-.59v4.67h5.5v3h-5.5v6.29a4.56,4.56,0,0,0,.59,2.66,2.34,2.34,0,0,0,2,.8,6.51,6.51,0,0,0,1.73-.21,11.28,11.28,0,0,0,1.2-.38l0.59,2.84a13.46,13.46,0,0,1-1.63.55,8.82,8.82,0,0,1-2.36.28,7.47,7.47,0,0,1-2.76-.44,4.06,4.06,0,0,1-1.76-1.29,5.11,5.11,0,0,1-.92-2,12.61,12.61,0,0,1-.27-2.73V246.24Z" transform="translate(-1088 -176)"/><path class="d" d="M1355.46,295.75a11.4,11.4,0,0,1-4.14-.71,8.17,8.17,0,0,1-3.1-2.08,9.31,9.31,0,0,1-1.95-3.35,14,14,0,0,1-.68-4.55,12.31,12.31,0,0,1,.78-4.55,9.85,9.85,0,0,1,2.14-3.35,9,9,0,0,1,3.19-2.08,10.8,10.8,0,0,1,3.93-.71,12.75,12.75,0,0,1,2.31.19,16.55,16.55,0,0,1,1.8.43,7.43,7.43,0,0,1,1.27.5l0.71,0.38-1.09,3a8.72,8.72,0,0,0-2-.84,9.78,9.78,0,0,0-2.85-.4,6.66,6.66,0,0,0-2.48.46,5.37,5.37,0,0,0-2,1.37,6.38,6.38,0,0,0-1.32,2.3,10,10,0,0,0-.47,3.22,11.4,11.4,0,0,0,.37,3,6.59,6.59,0,0,0,1.14,2.35,5.16,5.16,0,0,0,1.95,1.54,6.7,6.7,0,0,0,2.84.55,10.72,10.72,0,0,0,3.22-.4,12.94,12.94,0,0,0,1.92-.75l1,3a5.19,5.19,0,0,1-1,.47,13.49,13.49,0,0,1-1.43.46,14.23,14.23,0,0,1-1.86.35A17.34,17.34,0,0,1,1355.46,295.75Z" transform="translate(-1088 -176)"/><path class="d" d="M1378.62,287.57a9.94,9.94,0,0,1-.53,3.34,7.38,7.38,0,0,1-1.5,2.57,6.79,6.79,0,0,1-2.35,1.66,7.6,7.6,0,0,1-3,.59,7.48,7.48,0,0,1-3-.59,6.8,6.8,0,0,1-2.33-1.66,7.6,7.6,0,0,1-1.52-2.57,9.7,9.7,0,0,1-.55-3.34,9.58,9.58,0,0,1,.55-3.32,7.51,7.51,0,0,1,1.54-2.56,6.8,6.8,0,0,1,2.35-1.64,7.57,7.57,0,0,1,3-.58,7.68,7.68,0,0,1,3,.58,6.62,6.62,0,0,1,2.35,1.64,7.6,7.6,0,0,1,1.52,2.56A9.58,9.58,0,0,1,1378.62,287.57Zm-3.66,0a6,6,0,0,0-1-3.65,3.51,3.51,0,0,0-5.52,0,6,6,0,0,0-1,3.65,6.16,6.16,0,0,0,1,3.69,3.49,3.49,0,0,0,5.52,0A6.16,6.16,0,0,0,1375,287.57Z" transform="translate(-1088 -176)"/><path class="d" d="M1382.32,280.36a23.89,23.89,0,0,1,2.69-.56,23.11,23.11,0,0,1,3.66-.27,8.44,8.44,0,0,1,3.16.52,5,5,0,0,1,2,1.45,5.53,5.53,0,0,1,1.06,2.24,12.55,12.55,0,0,1,.31,2.88v8.68h-3.57v-8.12a11.77,11.77,0,0,0-.16-2.11,3.76,3.76,0,0,0-.53-1.42,2.12,2.12,0,0,0-1-.8,4.25,4.25,0,0,0-1.55-.25,11.92,11.92,0,0,0-1.42.09l-1.09.15v12.47h-3.57V280.36Z" transform="translate(-1088 -176)"/><path class="d" d="M1403.47,292.74a4.69,4.69,0,0,0,2.07-.34,1.21,1.21,0,0,0,.65-1.17,1.52,1.52,0,0,0-.69-1.27,10.19,10.19,0,0,0-2.29-1.09,18,18,0,0,1-1.79-.75,6.07,6.07,0,0,1-1.4-.93,3.82,3.82,0,0,1-.93-1.29,4.49,4.49,0,0,1-.34-1.85,4,4,0,0,1,1.57-3.35,6.72,6.72,0,0,1,4.26-1.23,13.11,13.11,0,0,1,2.6.25,12.76,12.76,0,0,1,1.86.49l-0.65,2.89a8.74,8.74,0,0,0-1.51-.49,9.1,9.1,0,0,0-2.13-.22,3.71,3.71,0,0,0-1.77.37,1.21,1.21,0,0,0-.68,1.14,1.63,1.63,0,0,0,.13.68,1.46,1.46,0,0,0,.46.55,4.71,4.71,0,0,0,.86.5,13,13,0,0,0,1.3.52,20.09,20.09,0,0,1,2.16.93,5.78,5.78,0,0,1,1.46,1,3.54,3.54,0,0,1,.84,1.31,5.3,5.3,0,0,1,.26,1.77,3.81,3.81,0,0,1-1.64,3.35,8.15,8.15,0,0,1-4.68,1.14,12.83,12.83,0,0,1-3.28-.34,16.72,16.72,0,0,1-1.74-.55l0.62-3a15.73,15.73,0,0,0,1.9.62A9.83,9.83,0,0,0,1403.47,292.74Z" transform="translate(-1088 -176)"/><path class="d" d="M1425.77,294.84q-1,.27-2.69.55a21.76,21.76,0,0,1-3.64.28,8,8,0,0,1-3.12-.53,5,5,0,0,1-2-1.48,5.8,5.8,0,0,1-1.08-2.26,11.88,11.88,0,0,1-.33-2.88v-8.66h3.57V288a6.55,6.55,0,0,0,.72,3.54,2.83,2.83,0,0,0,2.53,1.06c0.43,0,.89,0,1.37-0.06a7,7,0,0,0,1.08-.15v-12.5h3.57v15Z" transform="translate(-1088 -176)"/><path class="d" d="M1435.7,295.6a9.73,9.73,0,0,1-2.64-.35,4.05,4.05,0,0,1-1.67-.93,3.31,3.31,0,0,1-.87-1.51,7.62,7.62,0,0,1-.25-2.05V273l3.57-.59v17.7a5,5,0,0,0,.1,1.09,1.75,1.75,0,0,0,.37.75,1.66,1.66,0,0,0,.72.47,5.59,5.59,0,0,0,1.17.25Z" transform="translate(-1088 -176)"/><path class="d" d="M1438.92,275.78l3.57-.59v4.67h5.5v3h-5.5v6.29a4.56,4.56,0,0,0,.59,2.66,2.34,2.34,0,0,0,2,.8,6.51,6.51,0,0,0,1.73-.21,11.28,11.28,0,0,0,1.2-.38l0.59,2.84a13.46,13.46,0,0,1-1.63.55,8.82,8.82,0,0,1-2.36.28,7.47,7.47,0,0,1-2.76-.44,4.06,4.06,0,0,1-1.76-1.29,5.11,5.11,0,0,1-.92-2,12.61,12.61,0,0,1-.27-2.73V275.78Z" transform="translate(-1088 -176)"/><path class="d" d="M1456.59,279.47a8.73,8.73,0,0,1,3,.44,4.78,4.78,0,0,1,1.94,1.24,4.64,4.64,0,0,1,1,1.94,9.47,9.47,0,0,1,.31,2.5V295q-0.83.18-2.5,0.43a25.54,25.54,0,0,1-3.77.25,11.24,11.24,0,0,1-2.54-.27,5.34,5.34,0,0,1-2-.86,4,4,0,0,1-1.27-1.54,5.33,5.33,0,0,1-.46-2.33,4.49,4.49,0,0,1,.52-2.25,4.24,4.24,0,0,1,1.4-1.49,6.1,6.1,0,0,1,2.05-.83,11.59,11.59,0,0,1,2.44-.25,11,11,0,0,1,1.24.07,11.69,11.69,0,0,1,1.39.25v-0.59a4.62,4.62,0,0,0-.15-1.18,2.36,2.36,0,0,0-1.49-1.65,4.22,4.22,0,0,0-1.52-.24,13.52,13.52,0,0,0-2.27.18,10.07,10.07,0,0,0-1.69.41l-0.44-2.9a14.07,14.07,0,0,1,2-.47A15.55,15.55,0,0,1,1456.59,279.47Zm0.3,13.32a13.36,13.36,0,0,0,2.51-.18v-4a7,7,0,0,0-.86-0.18,8,8,0,0,0-1.24-.09,8.23,8.23,0,0,0-1.19.09,3.73,3.73,0,0,0-1.09.32,2,2,0,0,0-.78.66,1.86,1.86,0,0,0-.3,1.08,1.89,1.89,0,0,0,.8,1.76A4.12,4.12,0,0,0,1456.88,292.8Z" transform="translate(-1088 -176)"/><path class="d" d="M1467.22,280.36a23.89,23.89,0,0,1,2.69-.56,23.11,23.11,0,0,1,3.66-.27,8.44,8.44,0,0,1,3.16.52,5,5,0,0,1,2,1.45,5.53,5.53,0,0,1,1.06,2.24,12.55,12.55,0,0,1,.31,2.88v8.68h-3.57v-8.12a11.77,11.77,0,0,0-.16-2.11,3.76,3.76,0,0,0-.53-1.42,2.12,2.12,0,0,0-1-.8,4.25,4.25,0,0,0-1.55-.25,11.92,11.92,0,0,0-1.42.09l-1.09.15v12.47h-3.57V280.36Z" transform="translate(-1088 -176)"/><path class="d" d="M1484.32,275.78l3.57-.59v4.67h5.5v3h-5.5v6.29a4.56,4.56,0,0,0,.59,2.66,2.34,2.34,0,0,0,2,.8,6.51,6.51,0,0,0,1.73-.21,11.28,11.28,0,0,0,1.2-.38l0.59,2.84a13.46,13.46,0,0,1-1.63.55,8.82,8.82,0,0,1-2.36.28,7.47,7.47,0,0,1-2.76-.44,4.06,4.06,0,0,1-1.76-1.29,5.11,5.11,0,0,1-.92-2,12.61,12.61,0,0,1-.27-2.73V275.78Z" transform="translate(-1088 -176)"/><path class="d" d="M1500.72,292.74a4.69,4.69,0,0,0,2.07-.34,1.21,1.21,0,0,0,.65-1.17,1.52,1.52,0,0,0-.69-1.27,10.19,10.19,0,0,0-2.29-1.09,18,18,0,0,1-1.79-.75,6.07,6.07,0,0,1-1.4-.93,3.82,3.82,0,0,1-.93-1.29,4.49,4.49,0,0,1-.34-1.85,4,4,0,0,1,1.57-3.35,6.72,6.72,0,0,1,4.26-1.23,13.11,13.11,0,0,1,2.6.25,12.76,12.76,0,0,1,1.86.49l-0.65,2.89a8.74,8.74,0,0,0-1.51-.49,9.1,9.1,0,0,0-2.13-.22,3.71,3.71,0,0,0-1.77.37,1.21,1.21,0,0,0-.68,1.14,1.63,1.63,0,0,0,.13.68,1.46,1.46,0,0,0,.46.55,4.71,4.71,0,0,0,.86.5,13,13,0,0,0,1.3.52,20.09,20.09,0,0,1,2.16.93,5.78,5.78,0,0,1,1.46,1,3.54,3.54,0,0,1,.84,1.31,5.3,5.3,0,0,1,.26,1.77,3.81,3.81,0,0,1-1.64,3.35,8.15,8.15,0,0,1-4.68,1.14,12.83,12.83,0,0,1-3.28-.34,16.72,16.72,0,0,1-1.74-.55l0.62-3a15.73,15.73,0,0,0,1.9.62A9.83,9.83,0,0,0,1500.72,292.74Z" transform="translate(-1088 -176)"/></svg>