<svg xmlns="http://www.w3.org/2000/svg" viewBox="0 0 419.81 129"><defs><style>.a{fill:#9d1f60;stroke:#fff;stroke-width:2px;}.a,.b{stroke-miterlimit:10;}.b,.c{fill:#333;}.b{stroke:#333;stroke-width:4px;}</style></defs><title>logo</title><path class="a" d="M206.62,88c-3.3,10-12.19,16-22.62,16a24,24,0,1,1,0-48,24.47,24.47,0,0,1,22.62,16H223.2a40,40,0,1,0,0,16H206.62Z" transform="translate(-15 -15)"/><path class="a" d="M144,80a24,24,0,1,0-24,24,24,24,0,0,0,24-24V16h16V80a40,40,0,1,1-16-32V80Z" transform="translate(-15 -15)"/><path class="a" d="M80,80A24,24,0,1,1,56,56,24,24,0,0,1,80,80v40H96V80a40,40,0,1,0-16,32V80Z" transform="translate(-15 -15)"/><line class="b" x1="225" y1="1" x2="225" y2="129"/><path class="c" d="M256.81,42.38h3.61V62.24h-3.61V42.38Z" transform="translate(-15 -15)"/><path class="c" d="M265,47.74a23.31,23.31,0,0,1,2.61-.54,22.5,22.5,0,0,1,3.55-.26,8.17,8.17,0,0,1,3.07.5,4.79,4.79,0,0,1,2,1.4,5.38,5.38,0,0,1,1,2.18,12.15,12.15,0,0,1,.3,2.79v8.43h-3.47V54.36a11.43,11.43,0,0,0-.16-2,3.64,3.64,0,0,0-.52-1.38,2.06,2.06,0,0,0-1-.77,4.11,4.11,0,0,0-1.5-.24,11.63,11.63,0,0,0-1.38.09l-1.06.14v12.1H265V47.74Z" transform="translate(-15 -15)"/><path class="c" d="M281.6,43.3l3.47-.57v4.53h5.33v2.89h-5.33v6.11a4.44,4.44,0,0,0,.57,2.58,2.27,2.27,0,0,0,1.95.77,6.33,6.33,0,0,0,1.68-.2,11.12,11.12,0,0,0,1.16-.37L291,61.78a13,13,0,0,1-1.58.53,8.58,8.58,0,0,1-2.29.27,7.26,7.26,0,0,1-2.68-.43,4,4,0,0,1-1.71-1.25,4.94,4.94,0,0,1-.89-2,12.3,12.3,0,0,1-.26-2.65v-13Z" transform="translate(-15 -15)"/><path class="c" d="M292.66,54.82a9.42,9.42,0,0,1,.59-3.47,7.29,7.29,0,0,1,1.56-2.48A6.46,6.46,0,0,1,297,47.38a6.93,6.93,0,0,1,2.58-.5,6.18,6.18,0,0,1,4.83,1.92q1.73,1.92,1.73,5.73,0,0.29,0,.64t0,0.65h-9.89a4,4,0,0,0,1.28,2.79,4.85,4.85,0,0,0,3.28,1,10.77,10.77,0,0,0,2.31-.23,9.53,9.53,0,0,0,1.65-.49l0.46,2.84a5.55,5.55,0,0,1-.79.3,11.14,11.14,0,0,1-1.15.29q-0.64.13-1.39,0.22a13.33,13.33,0,0,1-1.52.09,9.2,9.2,0,0,1-3.44-.59,6.4,6.4,0,0,1-2.41-1.63,6.69,6.69,0,0,1-1.4-2.47A10,10,0,0,1,292.66,54.82Zm10.06-1.55a4.57,4.57,0,0,0-.2-1.36,3.28,3.28,0,0,0-.59-1.12A2.79,2.79,0,0,0,301,50a3,3,0,0,0-1.33-.27,3.1,3.1,0,0,0-1.4.3,3.2,3.2,0,0,0-1,.79,3.59,3.59,0,0,0-.65,1.12,6,6,0,0,0-.32,1.29h6.45Z" transform="translate(-15 -15)"/><path class="c" d="M318.4,50.38a11.15,11.15,0,0,0-1.19-.3,8.75,8.75,0,0,0-1.76-.16,7,7,0,0,0-1.22.11,7.4,7.4,0,0,0-.9.2v12h-3.47V48a19.09,19.09,0,0,1,2.51-.7,15.65,15.65,0,0,1,3.34-.33c0.23,0,.5,0,0.8,0l0.92,0.11c0.31,0,.6.11,0.89,0.17s0.52,0.13.69,0.19Z" transform="translate(-15 -15)"/><path class="c" d="M321.41,47.74a23.31,23.31,0,0,1,2.61-.54,22.5,22.5,0,0,1,3.55-.26,8.17,8.17,0,0,1,3.07.5,4.79,4.79,0,0,1,2,1.4,5.38,5.38,0,0,1,1,2.18,12.15,12.15,0,0,1,.3,2.79v8.43h-3.47V54.36a11.43,11.43,0,0,0-.16-2,3.64,3.64,0,0,0-.52-1.38,2.06,2.06,0,0,0-1-.77,4.11,4.11,0,0,0-1.5-.24,11.63,11.63,0,0,0-1.38.09l-1.06.14v12.1h-3.47V47.74Z" transform="translate(-15 -15)"/><path class="c" d="M343.17,46.88a8.48,8.48,0,0,1,2.89.43,4.61,4.61,0,0,1,1.88,1.2,4.52,4.52,0,0,1,1,1.88,9.18,9.18,0,0,1,.3,2.42V61.9q-0.8.17-2.42,0.42a24.73,24.73,0,0,1-3.65.24,11,11,0,0,1-2.47-.26,5.17,5.17,0,0,1-1.91-.83A3.91,3.91,0,0,1,337.56,60a5.17,5.17,0,0,1-.44-2.26,4.37,4.37,0,0,1,.5-2.18A4.12,4.12,0,0,1,339,54.09a5.91,5.91,0,0,1,2-.8,11.24,11.24,0,0,1,2.36-.24,10.72,10.72,0,0,1,1.2.07,11.21,11.21,0,0,1,1.35.24V52.78a4.46,4.46,0,0,0-.14-1.15A2.29,2.29,0,0,0,344.3,50a4.1,4.1,0,0,0-1.48-.23,13.07,13.07,0,0,0-2.21.17,9.69,9.69,0,0,0-1.63.4l-0.43-2.81a13.69,13.69,0,0,1,1.92-.46A15.08,15.08,0,0,1,343.17,46.88Zm0.29,12.93a12.88,12.88,0,0,0,2.44-.17V55.79a6.7,6.7,0,0,0-.83-0.17,7.73,7.73,0,0,0-1.2-.09,8,8,0,0,0-1.16.09,3.61,3.61,0,0,0-1.06.32,1.92,1.92,0,0,0-.76.65,1.8,1.8,0,0,0-.29,1,1.83,1.83,0,0,0,.77,1.71A4,4,0,0,0,343.45,59.81Z" transform="translate(-15 -15)"/><path class="c" d="M353.32,43.3l3.47-.57v4.53h5.33v2.89h-5.33v6.11a4.44,4.44,0,0,0,.57,2.58,2.27,2.27,0,0,0,1.95.77,6.33,6.33,0,0,0,1.68-.2,11.12,11.12,0,0,0,1.16-.37l0.57,2.75a13,13,0,0,1-1.58.53,8.58,8.58,0,0,1-2.29.27,7.26,7.26,0,0,1-2.68-.43,4,4,0,0,1-1.71-1.25,4.94,4.94,0,0,1-.89-2,12.3,12.3,0,0,1-.26-2.65v-13Z" transform="translate(-15 -15)"/><path class="c" d="M369.34,42.87a2,2,0,0,1-.63,1.55,2.14,2.14,0,0,1-1.49.57,2.18,2.18,0,0,1-1.52-.57,2,2,0,0,1-.63-1.55,2,2,0,0,1,.63-1.58,2.18,2.18,0,0,1,1.52-.57,2.14,2.14,0,0,1,1.49.57A2,2,0,0,1,369.34,42.87ZM369,62.24H365.5v-15H369v15Z" transform="translate(-15 -15)"/><path class="c" d="M386.94,54.73a9.68,9.68,0,0,1-.52,3.24A7.17,7.17,0,0,1,385,60.47a6.56,6.56,0,0,1-2.28,1.61,7.36,7.36,0,0,1-2.94.57,7.26,7.26,0,0,1-2.92-.57,6.6,6.6,0,0,1-2.26-1.61A7.34,7.34,0,0,1,373.08,58a9.43,9.43,0,0,1-.53-3.24,9.31,9.31,0,0,1,.53-3.22A7.24,7.24,0,0,1,374.57,49a6.58,6.58,0,0,1,2.28-1.59,7.33,7.33,0,0,1,2.89-.56,7.45,7.45,0,0,1,2.91.56A6.42,6.42,0,0,1,384.93,49a7.37,7.37,0,0,1,1.48,2.48A9.31,9.31,0,0,1,386.94,54.73Zm-3.55,0a5.85,5.85,0,0,0-1-3.54,3.41,3.41,0,0,0-5.36,0,5.85,5.85,0,0,0-1,3.54,6,6,0,0,0,1,3.58,3.38,3.38,0,0,0,5.36,0A6,6,0,0,0,383.38,54.73Z" transform="translate(-15 -15)"/><path class="c" d="M390.52,47.74a23.31,23.31,0,0,1,2.61-.54,22.5,22.5,0,0,1,3.55-.26,8.17,8.17,0,0,1,3.07.5,4.79,4.79,0,0,1,2,1.4,5.38,5.38,0,0,1,1,2.18,12.15,12.15,0,0,1,.3,2.79v8.43h-3.47V54.36a11.43,11.43,0,0,0-.16-2,3.64,3.64,0,0,0-.52-1.38,2.06,2.06,0,0,0-1-.77,4.11,4.11,0,0,0-1.5-.24A11.63,11.63,0,0,0,395,50l-1.06.14v12.1h-3.47V47.74Z" transform="translate(-15 -15)"/><path class="c" d="M412.28,46.88a8.48,8.48,0,0,1,2.89.43,4.61,4.61,0,0,1,1.88,1.2,4.52,4.52,0,0,1,1,1.88,9.18,9.18,0,0,1,.3,2.42V61.9q-0.8.17-2.42,0.42a24.73,24.73,0,0,1-3.65.24,11,11,0,0,1-2.47-.26,5.17,5.17,0,0,1-1.91-.83A3.91,3.91,0,0,1,406.67,60a5.17,5.17,0,0,1-.44-2.26,4.37,4.37,0,0,1,.5-2.18,4.12,4.12,0,0,1,1.36-1.45,5.91,5.91,0,0,1,2-.8,11.24,11.24,0,0,1,2.36-.24,10.72,10.72,0,0,1,1.2.07,11.21,11.21,0,0,1,1.35.24V52.78a4.46,4.46,0,0,0-.14-1.15,2.29,2.29,0,0,0-1.45-1.6,4.1,4.1,0,0,0-1.48-.23,13.07,13.07,0,0,0-2.21.17,9.69,9.69,0,0,0-1.63.4l-0.43-2.81a13.69,13.69,0,0,1,1.92-.46A15.08,15.08,0,0,1,412.28,46.88Zm0.29,12.93a12.88,12.88,0,0,0,2.44-.17V55.79a6.7,6.7,0,0,0-.83-0.17,7.73,7.73,0,0,0-1.2-.09,8,8,0,0,0-1.16.09,3.61,3.61,0,0,0-1.06.32,1.92,1.92,0,0,0-.76.65,1.8,1.8,0,0,0-.29,1,1.83,1.83,0,0,0,.77,1.71A4,4,0,0,0,412.56,59.81Z" transform="translate(-15 -15)"/><path class="c" d="M427.81,62.53a9.42,9.42,0,0,1-2.56-.34,3.94,3.94,0,0,1-1.62-.9,3.19,3.19,0,0,1-.84-1.46,7.42,7.42,0,0,1-.24-2V40.57L426,40V57.17a4.72,4.72,0,0,0,.1,1.06,1.7,1.7,0,0,0,.36.73,1.6,1.6,0,0,0,.7.46,5.5,5.5,0,0,0,1.13.24Z" transform="translate(-15 -15)"/><path class="c" d="M273.66,81a11.5,11.5,0,0,1-.8,4.49,8.48,8.48,0,0,1-2.28,3.18A9.48,9.48,0,0,1,267,90.52a16.15,16.15,0,0,1-4.6.62q-1.2,0-2.72-.1a18.34,18.34,0,0,1-2.89-.42V71.33a17.36,17.36,0,0,1,2.92-.4q1.55-.09,2.75-0.09a16.61,16.61,0,0,1,4.56.59,9.4,9.4,0,0,1,3.54,1.83,8.23,8.23,0,0,1,2.28,3.15A11.67,11.67,0,0,1,273.66,81Zm-13.24,7,0.83,0h1.4q3.64,0,5.43-1.85A7.13,7.13,0,0,0,269.88,81a7.16,7.16,0,0,0-1.75-5.19Q266.38,74,262.71,74a21,21,0,0,0-2.29.09V87.93Z" transform="translate(-15 -15)"/><path class="c" d="M276.61,83.48A9.42,9.42,0,0,1,277.2,80a7.29,7.29,0,0,1,1.56-2.48A6.46,6.46,0,0,1,281,76a6.93,6.93,0,0,1,2.58-.5,6.18,6.18,0,0,1,4.83,1.92q1.73,1.92,1.73,5.73,0,0.29,0,.64t0,0.65h-9.89a4,4,0,0,0,1.28,2.79,4.85,4.85,0,0,0,3.28,1,10.77,10.77,0,0,0,2.31-.23,9.53,9.53,0,0,0,1.65-.49l0.46,2.84a5.55,5.55,0,0,1-.79.3,11.14,11.14,0,0,1-1.15.29q-0.64.13-1.39,0.22a13.33,13.33,0,0,1-1.52.09,9.2,9.2,0,0,1-3.44-.59,6.4,6.4,0,0,1-2.41-1.63,6.69,6.69,0,0,1-1.4-2.47A10,10,0,0,1,276.61,83.48Zm10.06-1.55a4.57,4.57,0,0,0-.2-1.36,3.28,3.28,0,0,0-.59-1.12,2.79,2.79,0,0,0-.95-0.75,3,3,0,0,0-1.33-.27,3.1,3.1,0,0,0-1.4.3,3.2,3.2,0,0,0-1,.79,3.59,3.59,0,0,0-.65,1.12,6,6,0,0,0-.32,1.29h6.45Z" transform="translate(-15 -15)"/><path class="c" d="M297.67,90.91q-1.44-3-3-6.78A85.58,85.58,0,0,1,292,75.92h3.7q0.32,1.26.73,2.71t0.89,2.9q0.48,1.45,1,2.81t0.93,2.45q0.43-1.09.92-2.45t1-2.81q0.47-1.45.91-2.9t0.75-2.71h3.58a85.87,85.87,0,0,1-2.75,8.21q-1.51,3.83-2.95,6.78h-3Z" transform="translate(-15 -15)"/><path class="c" d="M307.71,83.48A9.42,9.42,0,0,1,308.3,80a7.29,7.29,0,0,1,1.56-2.48A6.46,6.46,0,0,1,312.1,76a6.93,6.93,0,0,1,2.58-.5,6.18,6.18,0,0,1,4.83,1.92q1.73,1.92,1.73,5.73,0,0.29,0,.64t0,0.65h-9.89a4,4,0,0,0,1.28,2.79,4.85,4.85,0,0,0,3.28,1,10.77,10.77,0,0,0,2.31-.23,9.53,9.53,0,0,0,1.65-.49l0.46,2.84a5.55,5.55,0,0,1-.79.3,11.14,11.14,0,0,1-1.15.29q-0.64.13-1.39,0.22a13.33,13.33,0,0,1-1.52.09,9.2,9.2,0,0,1-3.44-.59,6.4,6.4,0,0,1-2.41-1.63,6.69,6.69,0,0,1-1.4-2.47A10,10,0,0,1,307.71,83.48Zm10.06-1.55a4.57,4.57,0,0,0-.2-1.36,3.28,3.28,0,0,0-.59-1.12,2.79,2.79,0,0,0-.95-0.75,3,3,0,0,0-1.33-.27,3.1,3.1,0,0,0-1.4.3,3.2,3.2,0,0,0-1,.79,3.59,3.59,0,0,0-.65,1.12,6,6,0,0,0-.32,1.29h6.45Z" transform="translate(-15 -15)"/><path class="c" d="M330.13,91.19a9.42,9.42,0,0,1-2.56-.34,3.94,3.94,0,0,1-1.62-.9,3.19,3.19,0,0,1-.84-1.46,7.42,7.42,0,0,1-.24-2V69.24l3.47-.57V85.83a4.72,4.72,0,0,0,.1,1.06,1.7,1.7,0,0,0,.36.73,1.6,1.6,0,0,0,.7.46,5.5,5.5,0,0,0,1.13.24Z" transform="translate(-15 -15)"/><path class="c" d="M347,83.4a9.68,9.68,0,0,1-.52,3.24A7.17,7.17,0,0,1,345,89.13a6.56,6.56,0,0,1-2.28,1.61,7.36,7.36,0,0,1-2.94.57,7.26,7.26,0,0,1-2.92-.57,6.6,6.6,0,0,1-2.26-1.61,7.34,7.34,0,0,1-1.48-2.49,9.43,9.43,0,0,1-.53-3.24,9.31,9.31,0,0,1,.53-3.22,7.24,7.24,0,0,1,1.49-2.48,6.58,6.58,0,0,1,2.28-1.59,7.33,7.33,0,0,1,2.89-.56,7.45,7.45,0,0,1,2.91.56A6.42,6.42,0,0,1,345,77.69a7.37,7.37,0,0,1,1.48,2.48A9.31,9.31,0,0,1,347,83.4Zm-3.55,0a5.85,5.85,0,0,0-1-3.54,3.41,3.41,0,0,0-5.36,0,5.85,5.85,0,0,0-1,3.54,6,6,0,0,0,1,3.58,3.38,3.38,0,0,0,5.36,0A6,6,0,0,0,343.43,83.4Z" transform="translate(-15 -15)"/><path class="c" d="M364.06,83.43a10.61,10.61,0,0,1-.44,3.15A7.35,7.35,0,0,1,362.34,89a5.66,5.66,0,0,1-2.08,1.61,6.69,6.69,0,0,1-2.82.57,7,7,0,0,1-1.95-.26,7.24,7.24,0,0,1-1.46-.57v5.82h-3.47V76.4q1.06-.29,2.61-0.54a19.89,19.89,0,0,1,3.27-.26,8.75,8.75,0,0,1,3.18.54A6.64,6.64,0,0,1,362,77.71a6.91,6.91,0,0,1,1.52,2.47A9.42,9.42,0,0,1,364.06,83.43Zm-3.55.06a5.59,5.59,0,0,0-1-3.61,4.09,4.09,0,0,0-3.37-1.29q-0.49,0-1,0a5.62,5.62,0,0,0-1,.19v8.57a5.37,5.37,0,0,0,1.22.59,4.76,4.76,0,0,0,1.62.27A3.1,3.1,0,0,0,359.64,87,6.09,6.09,0,0,0,360.51,83.48Z" transform="translate(-15 -15)"/><path class="c" d="M376.19,83a7.31,7.31,0,0,0-.59-3.4,2.29,2.29,0,0,0-2.19-1,10.31,10.31,0,0,0-1.26.09l-1,.14v12.1h-3.47V76.4a23.21,23.21,0,0,1,2.62-.54,21.77,21.77,0,0,1,3.42-.26,6.82,6.82,0,0,1,2.54.4,4.91,4.91,0,0,1,1.65,1.06,6.81,6.81,0,0,1,.8-0.49,8.36,8.36,0,0,1,1.09-.47,10,10,0,0,1,1.28-.36,6.51,6.51,0,0,1,1.36-.14,7.15,7.15,0,0,1,2.88.5,4.23,4.23,0,0,1,1.78,1.4,5.47,5.47,0,0,1,.89,2.18,14.91,14.91,0,0,1,.24,2.79v8.43h-3.47V83a7.46,7.46,0,0,0-.57-3.4,2.29,2.29,0,0,0-2.21-1,4.56,4.56,0,0,0-1.58.27,5.12,5.12,0,0,0-1.12.53,7.74,7.74,0,0,1,.32,1.52,16.28,16.28,0,0,1,.09,1.72v8.28h-3.47V83Z" transform="translate(-15 -15)"/><path class="c" d="M391.61,83.48A9.42,9.42,0,0,1,392.2,80a7.29,7.29,0,0,1,1.56-2.48A6.46,6.46,0,0,1,396,76a6.93,6.93,0,0,1,2.58-.5,6.18,6.18,0,0,1,4.83,1.92q1.73,1.92,1.73,5.73,0,0.29,0,.64t0,0.65h-9.89a4,4,0,0,0,1.28,2.79,4.85,4.85,0,0,0,3.28,1,10.77,10.77,0,0,0,2.31-.23,9.53,9.53,0,0,0,1.65-.49l0.46,2.84a5.55,5.55,0,0,1-.79.3,11.14,11.14,0,0,1-1.15.29q-0.64.13-1.39,0.22a13.33,13.33,0,0,1-1.52.09,9.2,9.2,0,0,1-3.44-.59,6.4,6.4,0,0,1-2.41-1.63,6.69,6.69,0,0,1-1.4-2.47A10,10,0,0,1,391.61,83.48Zm10.06-1.55a4.57,4.57,0,0,0-.2-1.36,3.28,3.28,0,0,0-.59-1.12,2.79,2.79,0,0,0-.95-0.75,3,3,0,0,0-1.33-.27,3.1,3.1,0,0,0-1.4.3,3.2,3.2,0,0,0-1,.79,3.59,3.59,0,0,0-.65,1.12,6,6,0,0,0-.32,1.29h6.45Z" transform="translate(-15 -15)"/><path class="c" d="M408.81,76.4a23.31,23.31,0,0,1,2.61-.54A22.5,22.5,0,0,1,415,75.6a8.17,8.17,0,0,1,3.07.5,4.79,4.79,0,0,1,2,1.4,5.38,5.38,0,0,1,1,2.18,12.15,12.15,0,0,1,.3,2.79v8.43h-3.47V83a11.43,11.43,0,0,0-.16-2,3.64,3.64,0,0,0-.52-1.38,2.06,2.06,0,0,0-1-.77,4.11,4.11,0,0,0-1.5-.24,11.63,11.63,0,0,0-1.38.09l-1.06.14v12.1h-3.47V76.4Z" transform="translate(-15 -15)"/><path class="c" d="M425.4,72l3.47-.57v4.53h5.33v2.89h-5.33v6.11a4.44,4.44,0,0,0,.57,2.58,2.27,2.27,0,0,0,1.95.77,6.33,6.33,0,0,0,1.68-.2,11.12,11.12,0,0,0,1.16-.37l0.57,2.75a13,13,0,0,1-1.58.53,8.58,8.58,0,0,1-2.29.27,7.26,7.26,0,0,1-2.68-.43,4,4,0,0,1-1.71-1.25,4.94,4.94,0,0,1-.89-2,12.3,12.3,0,0,1-.26-2.65V72Z" transform="translate(-15 -15)"/><path class="c" d="M265.63,120a11,11,0,0,1-4-.69,7.93,7.93,0,0,1-3-2,9,9,0,0,1-1.89-3.25,13.56,13.56,0,0,1-.66-4.41,11.92,11.92,0,0,1,.76-4.41A9.54,9.54,0,0,1,258.9,102a8.73,8.73,0,0,1,3.1-2,10.46,10.46,0,0,1,3.81-.69,12.29,12.29,0,0,1,2.24.19,16,16,0,0,1,1.75.42,7.23,7.23,0,0,1,1.23.49l0.69,0.37-1.06,3a8.39,8.39,0,0,0-2-.82,9.49,9.49,0,0,0-2.77-.39,6.46,6.46,0,0,0-2.41.44,5.22,5.22,0,0,0-1.94,1.33,6.21,6.21,0,0,0-1.28,2.24,9.71,9.71,0,0,0-.46,3.12,11,11,0,0,0,.36,2.89,6.41,6.41,0,0,0,1.1,2.28,5,5,0,0,0,1.89,1.49,6.5,6.5,0,0,0,2.75.53,10.45,10.45,0,0,0,3.12-.39,12.42,12.42,0,0,0,1.86-.73l1,3a4.94,4.94,0,0,1-.93.46,13.26,13.26,0,0,1-1.39.44,13.72,13.72,0,0,1-1.81.34A16.9,16.9,0,0,1,265.63,120Z" transform="translate(-15 -15)"/><path class="c" d="M288.11,112.06a9.68,9.68,0,0,1-.52,3.24,7.18,7.18,0,0,1-1.46,2.49,6.57,6.57,0,0,1-2.28,1.6,7.36,7.36,0,0,1-2.94.57,7.26,7.26,0,0,1-2.92-.57,6.61,6.61,0,0,1-2.26-1.6,7.35,7.35,0,0,1-1.48-2.49,9.42,9.42,0,0,1-.53-3.24,9.31,9.31,0,0,1,.53-3.23,7.24,7.24,0,0,1,1.49-2.48,6.58,6.58,0,0,1,2.28-1.59,7.33,7.33,0,0,1,2.89-.56,7.45,7.45,0,0,1,2.91.56,6.42,6.42,0,0,1,2.28,1.59,7.37,7.37,0,0,1,1.48,2.48A9.31,9.31,0,0,1,288.11,112.06Zm-3.55,0a5.85,5.85,0,0,0-1-3.54,3.41,3.41,0,0,0-5.36,0,5.85,5.85,0,0,0-1,3.54,6,6,0,0,0,1,3.58,3.38,3.38,0,0,0,5.36,0A6,6,0,0,0,284.55,112.06Z" transform="translate(-15 -15)"/><path class="c" d="M291.69,105.07a23.31,23.31,0,0,1,2.61-.54,22.5,22.5,0,0,1,3.55-.26,8.17,8.17,0,0,1,3.07.5,4.79,4.79,0,0,1,2,1.4,5.38,5.38,0,0,1,1,2.18,12.16,12.16,0,0,1,.3,2.79v8.43h-3.47v-7.88a11.44,11.44,0,0,0-.16-2,3.64,3.64,0,0,0-.52-1.38,2.06,2.06,0,0,0-1-.77,4.11,4.11,0,0,0-1.5-.24,11.63,11.63,0,0,0-1.38.09l-1.06.14v12.1h-3.47v-14.5Z" transform="translate(-15 -15)"/><path class="c" d="M312.21,117.08a4.57,4.57,0,0,0,2-.33,1.17,1.17,0,0,0,.63-1.13,1.47,1.47,0,0,0-.67-1.23,9.87,9.87,0,0,0-2.22-1.06,17.78,17.78,0,0,1-1.73-.73,5.91,5.91,0,0,1-1.36-.9,3.7,3.7,0,0,1-.9-1.25,4.35,4.35,0,0,1-.33-1.79,3.91,3.91,0,0,1,1.52-3.25,6.53,6.53,0,0,1,4.13-1.19,12.73,12.73,0,0,1,2.52.24,12.3,12.3,0,0,1,1.81.47L317,107.73a8.47,8.47,0,0,0-1.46-.47,8.83,8.83,0,0,0-2.06-.21,3.59,3.59,0,0,0-1.72.36,1.18,1.18,0,0,0-.66,1.1,1.59,1.59,0,0,0,.13.66,1.41,1.41,0,0,0,.44.53,4.52,4.52,0,0,0,.83.49,12.72,12.72,0,0,0,1.26.5,19.25,19.25,0,0,1,2.09.9,5.67,5.67,0,0,1,1.42,1,3.43,3.43,0,0,1,.82,1.28,5.09,5.09,0,0,1,.26,1.72,3.7,3.7,0,0,1-1.59,3.25,7.93,7.93,0,0,1-4.54,1.1,12.49,12.49,0,0,1-3.18-.33,16.23,16.23,0,0,1-1.69-.53l0.6-2.89a15.49,15.49,0,0,0,1.85.6A9.56,9.56,0,0,0,312.21,117.08Z" transform="translate(-15 -15)"/><path class="c" d="M333.85,119.11q-1,.26-2.61.53a21.18,21.18,0,0,1-3.53.27,7.78,7.78,0,0,1-3-.52,4.84,4.84,0,0,1-1.95-1.43,5.64,5.64,0,0,1-1-2.19,11.64,11.64,0,0,1-.31-2.79v-8.4h3.47v7.85a6.33,6.33,0,0,0,.7,3.44,2.75,2.75,0,0,0,2.45,1q0.63,0,1.33-.06a7.15,7.15,0,0,0,1-.14V104.58h3.47v14.53Z" transform="translate(-15 -15)"/><path class="c" d="M343.48,119.86a9.42,9.42,0,0,1-2.56-.34,4,4,0,0,1-1.62-.9,3.2,3.2,0,0,1-.84-1.46,7.43,7.43,0,0,1-.24-2V97.9l3.47-.57V114.5a4.73,4.73,0,0,0,.1,1.06,1.7,1.7,0,0,0,.36.73,1.6,1.6,0,0,0,.7.46A5.44,5.44,0,0,0,344,117Z" transform="translate(-15 -15)"/><path class="c" d="M346.61,100.62l3.47-.57v4.53h5.33v2.89h-5.33v6.11a4.44,4.44,0,0,0,.57,2.58,2.27,2.27,0,0,0,1.95.77,6.31,6.31,0,0,0,1.68-.2,11.1,11.1,0,0,0,1.16-.37l0.57,2.75a13,13,0,0,1-1.58.53,8.6,8.6,0,0,1-2.29.27,7.26,7.26,0,0,1-2.68-.43,4,4,0,0,1-1.71-1.25,4.94,4.94,0,0,1-.89-2,12.29,12.29,0,0,1-.26-2.65v-13Z" transform="translate(-15 -15)"/><path class="c" d="M363.75,104.21a8.48,8.48,0,0,1,2.89.43,4.61,4.61,0,0,1,1.88,1.2,4.52,4.52,0,0,1,1,1.88,9.18,9.18,0,0,1,.3,2.42v9.09q-0.8.17-2.42,0.42a24.72,24.72,0,0,1-3.65.24,11,11,0,0,1-2.47-.26,5.18,5.18,0,0,1-1.91-.83,3.92,3.92,0,0,1-1.23-1.49,5.17,5.17,0,0,1-.44-2.26,4.37,4.37,0,0,1,.5-2.18,4.12,4.12,0,0,1,1.36-1.45,5.92,5.92,0,0,1,2-.8,11.27,11.27,0,0,1,2.36-.24,10.84,10.84,0,0,1,1.2.07,11.21,11.21,0,0,1,1.35.24v-0.57a4.46,4.46,0,0,0-.14-1.15,2.29,2.29,0,0,0-1.45-1.6,4.1,4.1,0,0,0-1.48-.23,13.07,13.07,0,0,0-2.21.17,9.69,9.69,0,0,0-1.63.4l-0.43-2.81a13.69,13.69,0,0,1,1.92-.46A15.08,15.08,0,0,1,363.75,104.21ZM364,117.13a13,13,0,0,0,2.44-.17v-3.84a6.8,6.8,0,0,0-.83-0.17,7.67,7.67,0,0,0-1.2-.09,7.91,7.91,0,0,0-1.16.09,3.62,3.62,0,0,0-1.06.31,1.93,1.93,0,0,0-.76.65,1.8,1.8,0,0,0-.29,1,1.83,1.83,0,0,0,.77,1.71A4,4,0,0,0,364,117.13Z" transform="translate(-15 -15)"/><path class="c" d="M374.07,105.07a23.31,23.31,0,0,1,2.61-.54,22.5,22.5,0,0,1,3.55-.26,8.17,8.17,0,0,1,3.07.5,4.79,4.79,0,0,1,2,1.4,5.38,5.38,0,0,1,1,2.18,12.16,12.16,0,0,1,.3,2.79v8.43h-3.47v-7.88a11.44,11.44,0,0,0-.16-2,3.64,3.64,0,0,0-.52-1.38,2.06,2.06,0,0,0-1-.77,4.11,4.11,0,0,0-1.5-.24,11.63,11.63,0,0,0-1.38.09l-1.06.14v12.1h-3.47v-14.5Z" transform="translate(-15 -15)"/><path class="c" d="M390.66,100.62l3.47-.57v4.53h5.33v2.89h-5.33v6.11a4.44,4.44,0,0,0,.57,2.58,2.27,2.27,0,0,0,1.95.77,6.31,6.31,0,0,0,1.68-.2,11.1,11.1,0,0,0,1.16-.37l0.57,2.75a13,13,0,0,1-1.58.53,8.6,8.6,0,0,1-2.29.27,7.26,7.26,0,0,1-2.68-.43,4,4,0,0,1-1.71-1.25,4.94,4.94,0,0,1-.89-2,12.29,12.29,0,0,1-.26-2.65v-13Z" transform="translate(-15 -15)"/><path class="c" d="M406.57,117.08a4.57,4.57,0,0,0,2-.33,1.17,1.17,0,0,0,.63-1.13,1.47,1.47,0,0,0-.67-1.23,9.87,9.87,0,0,0-2.22-1.06,17.78,17.78,0,0,1-1.73-.73,5.91,5.91,0,0,1-1.36-.9,3.7,3.7,0,0,1-.9-1.25,4.35,4.35,0,0,1-.33-1.79,3.91,3.91,0,0,1,1.52-3.25,6.53,6.53,0,0,1,4.13-1.19,12.73,12.73,0,0,1,2.52.24,12.3,12.3,0,0,1,1.81.47l-0.63,2.81a8.47,8.47,0,0,0-1.46-.47,8.83,8.83,0,0,0-2.06-.21,3.59,3.59,0,0,0-1.72.36,1.18,1.18,0,0,0-.66,1.1,1.59,1.59,0,0,0,.13.66,1.41,1.41,0,0,0,.44.53,4.52,4.52,0,0,0,.83.49,12.72,12.72,0,0,0,1.26.5,19.25,19.25,0,0,1,2.09.9,5.67,5.67,0,0,1,1.42,1,3.43,3.43,0,0,1,.82,1.28,5.09,5.09,0,0,1,.26,1.72,3.7,3.7,0,0,1-1.59,3.25,7.93,7.93,0,0,1-4.54,1.1,12.49,12.49,0,0,1-3.18-.33,16.23,16.23,0,0,1-1.69-.53l0.6-2.89a15.49,15.49,0,0,0,1.85.6A9.56,9.56,0,0,0,406.57,117.08Z" transform="translate(-15 -15)"/></svg>