<svg xmlns="http://www.w3.org/2000/svg" viewBox="0 0 416.38 256"><defs><style>.a{fill:#a31e25;}</style></defs><title>aan_logo_official</title><path class="a" d="M384,128a79.66,79.66,0,0,0-53,20.15,95.92,95.92,0,0,1,16,29.29A48,48,0,0,1,432,208v80h32V208A80.09,80.09,0,0,0,384,128Z" transform="translate(-47.62 -128)"/><path class="a" d="M256,128a79.66,79.66,0,0,0-53,20.15,95.92,95.92,0,0,1,16,29.29,48,48,0,1,1,5,66.3V281.3A79.8,79.8,0,0,0,304,272v16h32V208A80.09,80.09,0,0,0,256,128Z" transform="translate(-47.62 -128)"/><path class="a" d="M128,128a80,80,0,1,0,48,144v16h32V208A80.09,80.09,0,0,0,128,128Zm0,128a48,48,0,1,1,48-48A48.05,48.05,0,0,1,128,256Z" transform="translate(-47.62 -128)"/><path class="a" d="M68.63,332a32.39,32.39,0,0,1,10.32,1.41,16,16,0,0,1,6.61,4,14.85,14.85,0,0,1,3.52,6.38,31.5,31.5,0,0,1,1,8.35v29.08q-3,.66-8.35,1.55a80.25,80.25,0,0,1-12.94.89,41.05,41.05,0,0,1-8.68-.84,18.81,18.81,0,0,1-6.71-2.77,12.65,12.65,0,0,1-4.31-5,17.32,17.32,0,0,1-1.5-7.6,14.39,14.39,0,0,1,1.73-7.32A13.35,13.35,0,0,1,54,355.39a21,21,0,0,1,6.66-2.58,37.36,37.36,0,0,1,7.79-.8,44.49,44.49,0,0,1,4.83.23,21.75,21.75,0,0,1,3.42.61v-1.31a7.74,7.74,0,0,0-2.16-5.72q-2.16-2.16-7.5-2.16a47.92,47.92,0,0,0-7,.52,30.24,30.24,0,0,0-6,1.45l-1.78-11.26q1.22-.37,3-0.8t4-.75q2.16-.33,4.55-0.56T68.63,332Zm1.13,40.9q2.06,0,3.94-.09a26.69,26.69,0,0,0,3-.28V362q-0.84-.19-2.53-0.37a28.23,28.23,0,0,0-3.1-.19,27.7,27.7,0,0,0-3.71.24,9.7,9.7,0,0,0-3,.89,5.23,5.23,0,0,0-2.06,1.78,5,5,0,0,0-.75,2.81q0,3.28,2.2,4.55A12.18,12.18,0,0,0,69.75,372.93Z" transform="translate(-47.62 -128)"/><path class="a" d="M112.24,372.65a13.94,13.94,0,0,0,5.44-.75,2.9,2.9,0,0,0,1.59-2.91,3.56,3.56,0,0,0-2.06-3,39.32,39.32,0,0,0-6.28-2.86,63.79,63.79,0,0,1-6-2.53,17.48,17.48,0,0,1-4.55-3.14,12.67,12.67,0,0,1-2.91-4.36,16.12,16.12,0,0,1-1-6.1,13.18,13.18,0,0,1,5.16-11q5.16-4,14.16-4a45.53,45.53,0,0,1,8.63.8,40.3,40.3,0,0,1,6.57,1.74l-2.44,10.88a51.41,51.41,0,0,0-5.3-1.5,28.89,28.89,0,0,0-6.43-.66q-6.57,0-6.57,3.66a3.77,3.77,0,0,0,.28,1.5,3.19,3.19,0,0,0,1.13,1.27A15.77,15.77,0,0,0,114,351q1.45,0.71,3.71,1.56a57.32,57.32,0,0,1,7.6,3.36,18.16,18.16,0,0,1,4.74,3.57,11.05,11.05,0,0,1,2.44,4.26,18.91,18.91,0,0,1,.7,5.43q0,7.3-5.49,11T112.15,384a44.58,44.58,0,0,1-10.93-1.13A44.12,44.12,0,0,1,95.17,381l2.35-11.35a45.73,45.73,0,0,0,7.32,2.2A35.53,35.53,0,0,0,112.24,372.65Z" transform="translate(-47.62 -128)"/><path class="a" d="M153,372.65a13.94,13.94,0,0,0,5.44-.75,2.9,2.9,0,0,0,1.59-2.91,3.56,3.56,0,0,0-2.06-3,39.32,39.32,0,0,0-6.28-2.86,63.79,63.79,0,0,1-6-2.53,17.48,17.48,0,0,1-4.55-3.14,12.67,12.67,0,0,1-2.91-4.36,16.12,16.12,0,0,1-1-6.1,13.18,13.18,0,0,1,5.16-11q5.16-4,14.16-4a45.53,45.53,0,0,1,8.63.8,40.3,40.3,0,0,1,6.57,1.74l-2.44,10.88a51.41,51.41,0,0,0-5.3-1.5,28.89,28.89,0,0,0-6.43-.66q-6.57,0-6.57,3.66a3.77,3.77,0,0,0,.28,1.5,3.19,3.19,0,0,0,1.13,1.27,15.77,15.77,0,0,0,2.3,1.32q1.45,0.71,3.71,1.56a57.32,57.32,0,0,1,7.6,3.36,18.16,18.16,0,0,1,4.74,3.57,11.05,11.05,0,0,1,2.44,4.26,18.91,18.91,0,0,1,.7,5.43q0,7.3-5.49,11T153,384A44.58,44.58,0,0,1,142,382.88,44.12,44.12,0,0,1,136,381l2.35-11.35a45.73,45.73,0,0,0,7.32,2.2A35.53,35.53,0,0,0,153,372.65Z" transform="translate(-47.62 -128)"/><path class="a" d="M225.83,357.93a32.09,32.09,0,0,1-1.69,10.65,23.13,23.13,0,0,1-4.88,8.25,22,22,0,0,1-7.64,5.3,25.53,25.53,0,0,1-10,1.88,25.27,25.27,0,0,1-9.9-1.88,21.92,21.92,0,0,1-7.64-5.3,24.23,24.23,0,0,1-5-8.25,30.52,30.52,0,0,1-1.78-10.65,29.45,29.45,0,0,1,1.83-10.6,24,24,0,0,1,5.06-8.16,22.76,22.76,0,0,1,7.69-5.25,24.77,24.77,0,0,1,9.71-1.88,25,25,0,0,1,9.8,1.88,22.3,22.3,0,0,1,7.64,5.25,23.85,23.85,0,0,1,5,8.16A30.17,30.17,0,0,1,225.83,357.93Zm-14.26,0q0-6.47-2.58-10.18a8.44,8.44,0,0,0-7.36-3.71,8.55,8.55,0,0,0-7.41,3.71q-2.63,3.71-2.63,10.18t2.63,10.27a8.49,8.49,0,0,0,7.41,3.8,8.37,8.37,0,0,0,7.36-3.8Q211.57,364.4,211.58,357.93Z" transform="translate(-47.62 -128)"/><path class="a" d="M229.58,358a29.08,29.08,0,0,1,1.74-10.08,23.6,23.6,0,0,1,13-13.83A26.32,26.32,0,0,1,255,332a34.53,34.53,0,0,1,7.22.7,35.2,35.2,0,0,1,6.38,2l-2.91,11.16a35.34,35.34,0,0,0-4.31-1.31,22.58,22.58,0,0,0-5.25-.56q-6.19,0-9.24,3.85t-3,10.13q0,6.66,2.86,10.32t10,3.66a34.19,34.19,0,0,0,5.44-.47,23.12,23.12,0,0,0,5.35-1.5l2,11.44a32.75,32.75,0,0,1-6.1,1.78,40.25,40.25,0,0,1-8.07.75,30.37,30.37,0,0,1-11.63-2,21.91,21.91,0,0,1-8-5.49,21.38,21.38,0,0,1-4.6-8.21A34.82,34.82,0,0,1,229.58,358Z" transform="translate(-47.62 -128)"/><path class="a" d="M289.43,319.09a7.67,7.67,0,0,1-2.49,6.05,8.9,8.9,0,0,1-11.73,0,8.61,8.61,0,0,1,0-12.1,8.9,8.9,0,0,1,11.73,0A7.68,7.68,0,0,1,289.43,319.09Zm-1.31,63.6h-14V333.35h14v49.34Z" transform="translate(-47.62 -128)"/><path class="a" d="M314.28,332a32.39,32.39,0,0,1,10.32,1.41,16,16,0,0,1,6.61,4,14.85,14.85,0,0,1,3.52,6.38,31.48,31.48,0,0,1,1,8.35v29.08q-3,.66-8.35,1.55a80.25,80.25,0,0,1-12.94.89,41,41,0,0,1-8.68-.84,18.82,18.82,0,0,1-6.71-2.77,12.65,12.65,0,0,1-4.31-5,17.32,17.32,0,0,1-1.5-7.6,14.39,14.39,0,0,1,1.74-7.32,13.35,13.35,0,0,1,4.64-4.78,21,21,0,0,1,6.66-2.58,37.36,37.36,0,0,1,7.79-.8,44.48,44.48,0,0,1,4.83.23,21.75,21.75,0,0,1,3.42.61v-1.31a7.74,7.74,0,0,0-2.16-5.72q-2.16-2.16-7.5-2.16a47.91,47.91,0,0,0-7,.52,30.25,30.25,0,0,0-6,1.45l-1.78-11.26q1.22-.37,3-0.8t4-.75q2.16-.33,4.55-0.56T314.28,332Zm1.13,40.9q2.06,0,3.94-.09a26.71,26.71,0,0,0,3-.28V362q-0.85-.19-2.53-0.37a28.22,28.22,0,0,0-3.09-.19,27.7,27.7,0,0,0-3.71.24,9.7,9.7,0,0,0-3,.89,5.23,5.23,0,0,0-2.06,1.78,5,5,0,0,0-.75,2.81q0,3.28,2.21,4.55A12.18,12.18,0,0,0,315.41,372.93Z" transform="translate(-47.62 -128)"/><path class="a" d="M343.27,321.06l14-2.25v14.54H374V345H357.24v17.35a13.8,13.8,0,0,0,1.55,7Q360.34,372,365,372a26.72,26.72,0,0,0,4.64-.42A23.78,23.78,0,0,0,374,370.4l2,10.88a39.53,39.53,0,0,1-5.63,1.78,32.8,32.8,0,0,1-7.6.75,25,25,0,0,1-9.47-1.55,14.85,14.85,0,0,1-6-4.32,16.05,16.05,0,0,1-3.14-6.71,39.5,39.5,0,0,1-.89-8.72V321.06Z" transform="translate(-47.62 -128)"/><path class="a" d="M376.47,358.39a30.17,30.17,0,0,1,2-11.49,24.64,24.64,0,0,1,5.3-8.21,22,22,0,0,1,7.55-5,23.66,23.66,0,0,1,8.77-1.69q10.5,0,16.6,6.43t6.1,18.9c0,0.81,0,1.71-.09,2.67s-0.13,1.83-.19,2.58h-31.7a9.28,9.28,0,0,0,4,6.85q3.56,2.53,9.57,2.53a40.43,40.43,0,0,0,7.55-.7,28.47,28.47,0,0,0,6-1.74l1.88,11.35a19.41,19.41,0,0,1-3,1.13,39.35,39.35,0,0,1-4.17,1q-2.3.42-4.92,0.7a49.31,49.31,0,0,1-5.25.28A31.11,31.11,0,0,1,391,382a22.55,22.55,0,0,1-8.16-5.39,21.41,21.41,0,0,1-4.78-8.11A32.15,32.15,0,0,1,376.47,358.39ZM409.3,353a14.49,14.49,0,0,0-.61-3.47,8.71,8.71,0,0,0-1.59-3,8.51,8.51,0,0,0-2.72-2.16,8.87,8.87,0,0,0-4.08-.84,9.39,9.39,0,0,0-4,.8,8.34,8.34,0,0,0-2.81,2.11,9.43,9.43,0,0,0-1.74,3,19.89,19.89,0,0,0-.89,3.52H409.3Z" transform="translate(-47.62 -128)"/><path class="a" d="M443.07,372.65a13.94,13.94,0,0,0,5.44-.75A2.9,2.9,0,0,0,450.1,369a3.56,3.56,0,0,0-2.06-3,39.31,39.31,0,0,0-6.28-2.86,63.71,63.71,0,0,1-6-2.53,17.47,17.47,0,0,1-4.55-3.14,12.68,12.68,0,0,1-2.91-4.36,16.13,16.13,0,0,1-1-6.1,13.18,13.18,0,0,1,5.16-11q5.16-4,14.16-4a45.53,45.53,0,0,1,8.63.8,40.27,40.27,0,0,1,6.57,1.74l-2.44,10.88a51.42,51.42,0,0,0-5.3-1.5,28.88,28.88,0,0,0-6.42-.66q-6.57,0-6.57,3.66a3.77,3.77,0,0,0,.28,1.5,3.2,3.2,0,0,0,1.13,1.27,15.77,15.77,0,0,0,2.3,1.32q1.45,0.71,3.71,1.56a57.31,57.31,0,0,1,7.6,3.36,18.17,18.17,0,0,1,4.74,3.57,11,11,0,0,1,2.44,4.26,18.88,18.88,0,0,1,.7,5.43q0,7.3-5.49,11T443,384a43.82,43.82,0,0,1-17-3l2.34-11.35a45.74,45.74,0,0,0,7.32,2.2A35.53,35.53,0,0,0,443.07,372.65Z" transform="translate(-47.62 -128)"/></svg>