<?xml version="1.0" encoding="utf-8"?>
<!-- Generator: Adobe Illustrator 19.2.1, SVG Export Plug-In . SVG Version: 6.00 Build 0)  -->
<svg version="1.1" id="Layer_1" xmlns="http://www.w3.org/2000/svg" xmlns:xlink="http://www.w3.org/1999/xlink" x="0px" y="0px"
	 viewBox="0 0 512 512" style="enable-background:new 0 0 512 512;" xml:space="preserve">
<style type="text/css">
	.st0{fill:#FFFFFF;}
</style>
<g>
	<circle cx="256" cy="256" r="256"/>
</g>
<path class="st0" d="M197.6,241.2c2.3,0.3,4.2,0.6,6.6,0.9c-0.8-1.9-1.3-3.3-1.9-4.6c-2.7-6.6-3-13.4-2.1-20.4
	c0.9-6.4,2-12.7,2.6-19.1c0.6-6.4,1.2-12.8,1-19.2c-0.1-3.7-1.3-7.6-2.6-11.1c-0.7-2-2.7-3.5-4.1-5.2c-0.4-0.6-0.7-1.3-1-2
	c1-0.4,2-1.1,2.9-1c1.2,0.2,2.3,1.2,3.8,2.1c-0.5-3.4-0.9-6.4-1.4-9.3c-1.3-6.5-3.2-12.7-6.4-18.5c-1.2-2.2-2.8-4.2-4.2-6.3
	c-0.3-0.5-0.5-1.2-0.7-1.8c0.6-0.2,1.1-0.5,1.7-0.6c6.4-0.5,12.1,1.5,17.3,5.2c0.3,0.2,0.7,0.5,1,0.7c0.1,0,0.2-0.1,0.4-0.1
	c-3.3-8.2-16.5-24.4-41.1-29.3c1.4-1.3,2.4-2.6,3.6-3.3c3.2-1.9,6.7-3,10.6-3c1.3,0,2.6-0.3,3.8-0.5c0.1-0.2,0.2-0.4,0.3-0.7
	c-1-1.1-1.9-2.3-3.1-3.1c-5.2-3.9-11-6.6-17.5-7.4c-5.6-0.7-11.2-1.3-17.1-1.9c0.3-0.6,0.5-1.4,1.1-1.9c8.5-8.6,18.3-15.2,29.9-19.2
	c12.4-4.3,25.2-5,38.1-4.2c9.5,0.6,18.9,1.9,27.9,5c14.6,5,24,15.6,30.4,29.3c4.8,10.3,7.4,21.2,8.9,32.4c0.8,5.9,1.2,11.8,1.3,17.8
	c0.2,6.6-0.2,13.3-0.3,19.9c0,0.2,0.1,0.5,0.4,1.2c5.2-5.6,7.8-12.1,9-19c1.2-6.8,1.5-13.8,2.2-21.3c0.7,1.9,1.3,3.3,1.7,4.8
	c2,7.7,3.6,15.4,4.6,23.3c1.7,12.7,2.5,25.4,2,38.1c-0.3,7.3-1.1,14.6-2,21.9c-0.8,6.4-1.8,12.9-3.3,19.2c-2,8.7-4.2,17.3-6.9,25.8
	c-5.3,16.9-12.8,32.8-21.8,48c-0.6,1-1.3,1.9-1.9,2.8c-0.2-0.1-0.3-0.2-0.5-0.2c3.5-12.6,7.1-25.1,10.4-37.7
	c3.3-12.6,6.4-25.2,7.3-38.2c-0.2-0.1-0.4-0.2-0.6-0.3c-0.4,0.6-0.8,1.3-1.3,1.8c-1.7,2.1-3.4,4.2-5.3,6.1c-1,1.1-1.9,0.6-2.1-0.9
	c-0.1-0.8-0.2-1.5-0.2-2.3c-0.8-7.9-1.5-15.7-2.4-23.6c-0.5-4.2-0.8-8.4-1.8-12.6c-1.6-7.1-3.3-14.2-5.6-21.1
	c-1.7-5-4.3-9.6-6.6-14.4c-0.6-1.3-1.7-2.3-2.6-3.5c-0.2,0.1-0.4,0.1-0.6,0.2c-0.1,0.6-0.2,1.3-0.2,1.9c0,4.5,0.2,9,0,13.5
	c-0.4,9.2-0.9,18.4-1.5,27.6c-0.4,5.9-0.8,11.9-1.7,17.7c-1.2,8.8-2.5,17.6-4.3,26.3c-2.1,9.9-4.4,19.8-7.2,29.5
	c-4.7,16-11.2,31.2-20.4,45.1c-8.7,13.2-19.4,24.5-33.5,32.1c-3.2,1.7-7,2.4-10.4,3.7c-2,0.8-3.9,1.8-5.7,3
	c-1.8,1.2-1.7,3.2,0.2,4.2c3.4,1.9,6.9,3.6,10.5,5.1c1,0.4,2.3,0.2,3.5,0c5.1-1,10.2-2.4,15.3-3c7-0.8,14.1-1.5,21.1-1.4
	c7.5,0.1,14.9,0.9,22.3,2c6,0.9,12,2.2,17.7,4.1c8,2.6,15.9,5.5,23.5,9.2c7.4,3.6,14.6,7.8,21.2,12.7c7.9,5.8,15,12.6,22.4,19
	c0.8,0.7,1.2,1.9,1.5,2.9c0.8,2.2,1.9,3.1,4.3,2.8c3.2-0.5,6-1.9,8.1-4.4c1.2-1.4,1-2.2-0.7-2.8c-1.2-0.5-2.4-0.8-3.6-1.2
	c-6.5-2-8.2-5.5-7.2-12.1c0.7-4.2,0.4-8.6,0.2-12.9c-0.4-8.9-6.1-15.1-11.4-21.4c-1.8-2.2-4-4.1-6-6.1c-0.7-0.7-1.3-1.4-2-2.1
	c0.1-0.2,0.2-0.3,0.3-0.5c2,0.7,4,1.2,5.9,2c16.8,7.1,27.7,19.7,33.6,36.8c1.5,4.3,2.5,8.7,3.9,13c1,3.1,3.1,5.2,5.9,6.8
	c3.7,2.1,7.5,4.1,11,6.5c2,1.4,3.8,3.3,5.4,5.2c1.5,1.8,1.6,4.1,0,6c-2.6,3.2-5.3,6.4-8.1,9.5c-0.5,0.6-1.8,1-2.5,0.7
	c-7.8-3.4-16.1-2.4-24.2-2.3c-3.1,0-5.4-1.1-7.8-2.8c-1.8-1.3-3.8-2.4-5.9-3.1c-3-1.1-5.3,0.1-6.9,3.2c-2.2,4.5-2.8,9.3-2.8,14.3
	c0,2.1,0,4.2,0,6.6c-4.4-0.8-8-2.7-11.1-5.5c-4-3.7-5-8.4-4.5-13.6c0.1-1.4,0.2-2.8,0.7-4.1c0.7-1.9,0.2-3.3-1.2-4.6
	c-10.3-10-21.7-18.6-34.8-24.7c-10.4-4.9-21.2-8.1-32.8-9.1c-8.9-0.8-17.7-0.4-26.4,1.1c-12.3,2.1-23.5,7-33.8,14
	c-4.6,3.2-9.4,6.1-14.4,8.6c-2.7,1.4-5.8,2.1-8.8,2.5c-6.9,0.8-12.8-1.9-17.8-6.4c-7.1-6.3-10.4-14.3-9.6-23.8
	c0.6-8.1,3.5-15.5,7.4-22.5c9.4-17.1,22.4-31.4,36.6-44.6c7.5-7,13.4-15.1,17.9-24.4c4.5-9.2,7.2-18.9,8.1-28.9
	c0.7-7.9,0.8-16-0.8-23.9C198,244.5,197.9,243,197.6,241.2z"/>
</svg>
