<svg id="Layer_1" data-name="Layer 1" xmlns="http://www.w3.org/2000/svg" xmlns:xlink="http://www.w3.org/1999/xlink" viewBox="0 0 480 420.06"><defs><style>.cls-1{fill:#5a5b5d;}.cls-2{fill:url(#radial-gradient);}</style><radialGradient id="radial-gradient" cx="406.02" cy="241.08" r="184.23" gradientTransform="matrix(0.78, 0, 0, -0.78, 11.16, 432.32)" gradientUnits="userSpaceOnUse"><stop offset="0" stop-color="#6799cc"/><stop offset="1" stop-color="#34679a"/></radialGradient></defs><title>logo</title><path class="cls-1" d="M490.81,432.6l-8.17-1.22-1.6-.24-7.34-1.26-2-.39-4.08-.78c-5.2-1-14-2.77-19.45-4l-5.59-1.26c-5.79-1.22-11.62-2.87-17.79-4.57-3.11-.78-6.27-1.75-9.43-2.77L405.59,413c-3.35-1-6.71-2.33-10.11-3.5l-3.4-1.22c-3.84-1.36-10.16-3.79-14.05-5.35l-3.6-1.46L369,399.3c-1.8-.73-3.6-1.65-5.4-2.43l-11-4.86c-3.7-1.75-7.34-3.7-11-5.54l-7.49-3.65c-8.17-4.86-18.23-10.55-22.32-13s-17.94-12-21.93-14.59-21.3-16-29.56-22.85c0,0-13-10.74-26-23.68s-23.68-26-23.68-26c-6.81-8.27-17.26-21.49-23.19-29.17l-4.86-7.44c-2.48-3.65-4.86-7.29-7.2-11l-2.53-4.13c-2.53-4-6.47-10.74-8.75-14.88l-1.85-3.79c-1-1.85-2.09-3.7-3.06-5.54l-2.82-5.59c-2.09-3.74-3.84-7.39-5.79-11s-3.31-7.39-4.86-11c-0.83-1.8-1.7-3.6-2.43-5.4L141,168.21l-1.46-3.6c-1.56-3.84-5.15-13.27-7.92-20.91L129.43,137l-3.06-9.72c-1-3.21-2-6.37-2.77-9.48-1.6-6.22-3.35-12.06-4.62-17.7l-1.26-5.69c-1.26-5.59-3.06-14.59-4-19.45l-0.73-4.08-0.39-2c-0.39-2.09-1-5.4-1.26-7.34l-0.24-1.6-1.22-8.31-0.73-4.47c0-1.31-.49-1.31-0.63,0L108,51.63l-0.83,8.27v1.6c0,2-.39,5.35-0.49,7.49v2.19l-0.39,4.18V101.8c0,3,.39,6,0.68,9.14l0.92,9.72a62.07,62.07,0,0,0,1.36,10.16l1.65,10.65c0.49,3.65,1.46,7.29,2.24,11l0.44,1.6a96.27,96.27,0,0,1-5.49,21.54L17.41,447.92a13.18,13.18,0,0,0,13.52,18.23H56.84a28.88,28.88,0,0,0,25.57-18.43l60.34-181.06c3.4-10.16,8.41-14.29,11.18-9.29l2.87,4.47,1.26,2,3.45,5.64,1.94,3.06,6.51,9.72,2.77,4c6.22,8.61,7.54,10.21,7.54,10.21a38.9,38.9,0,0,1,6.22,33.21l-39.24,117.9a13.18,13.18,0,0,0,13.32,18.43h25.91a28.88,28.88,0,0,0,25.57-18.43L235.61,377c3.4-10.16,10.45-15.07,15.75-10.89l4.86,3.55,4,2.77L270,379l3.06,1.94,5.64,3.45,2,1.26,7.88,5.15c9.14,4.86,20.42,10.4,25,12.59l4.18,1.9c2.09,1,4.08,2,6.17,2.82l6.27,2.72c4.13,1.65,8.22,3.35,12.3,4.86l12.2,4.18c2,0.63,4,1.36,6,1.94l6,1.7,3.94,1.12c4.23,1.17,9.19,2.43,10.94,2.82s9.09,9.72,12.5,19.84v0.63a28.88,28.88,0,0,0,25.82,18.23h25.91c10.7,0,17.21-6.71,14.59-14.93a101.56,101.56,0,0,1-4.33-14.88h17.36c2.14,0,5.54-.29,7.54-0.49h1.65l8.31-.83,4.47-.49c1.31,0,1.31-.44,0-0.63Z" transform="translate(-16.37 -46.17)"/><path class="cls-2" d="M250,300.31l2.77,2.77c3.16,3,8.46-2.92,11.86-13.08L297,192.77c3.4-10.16,8.9-10.16,12.3,0l58.34,175c3.4,10.16,7.83,19.45,9.72,20.13l1.85,0.83c1.8,0.83,3.6,1.7,5.4,2.43l5.45,2.19,3.6,1.46c3.84,1.56,10.16,4,14.05,5.35l3.4,1.22c3.45,1.17,6.76,2.53,10.11,3.5L431,408c3.21,1,6.37,2,9.43,2.77l2.29,0.58c2.43,0.68,1.65-7.1-1.7-17.26L341.75,95.63A28.88,28.88,0,0,0,316.18,77.2h-26a28.88,28.88,0,0,0-25.57,18.43L217.43,237.25a92.38,92.38,0,0,0-5.25,19.45c0.49,0.68,7.34,9.19,14.15,17.41A346.08,346.08,0,0,0,250,300.31Z" transform="translate(-16.37 -46.17)"/></svg>